<svg width="36" height="60" viewBox="0 0 36 60" fill="none" xmlns="http://www.w3.org/2000/svg">
<path d="M1.3326 27.6588L28.0334 0.958529C28.6509 0.340485 29.4753 0 30.3543 0C31.2333 0 32.0577 0.340485 32.6753 0.958529L34.6416 2.92437C35.9211 4.20533 35.9211 6.28727 34.6416 7.56628L12.2203 29.9876L34.6665 52.4337C35.284 53.0518 35.625 53.8757 35.625 54.7542C35.625 55.6337 35.284 56.4576 34.6665 57.0761L32.7001 59.0415C32.0821 59.6595 31.2582 60 30.3792 60C29.5002 60 28.6758 59.6595 28.0582 59.0415L1.3326 32.3168C0.713577 31.6968 0.373581 30.869 0.375534 29.989C0.373581 29.1056 0.713577 28.2783 1.3326 27.6588Z" fill="white"/>
</svg>
