<svg width="36" height="60" viewBox="0 0 36 60" fill="none" xmlns="http://www.w3.org/2000/svg">
<path d="M34.2924 27.6588L7.59164 0.958529C6.97409 0.340485 6.14971 0 5.27069 0C4.39167 0 3.56729 0.340485 2.94973 0.958529L0.983407 2.92437C-0.296095 4.20533 -0.296095 6.28727 0.983407 7.56628L23.4047 29.9876L0.958529 52.4337C0.340973 53.0518 0 53.8757 0 54.7542C0 55.6337 0.340973 56.4576 0.958529 57.0761L2.92485 59.0415C3.5429 59.6595 4.36679 60 5.24581 60C6.12483 60 6.94921 59.6595 7.56677 59.0415L34.2924 32.3168C34.9114 31.6968 35.2514 30.869 35.2495 29.989C35.2514 29.1056 34.9114 28.2783 34.2924 27.6588Z" fill="#02C4F2"/>
</svg>
